<svg id="Layer_1" data-name="Layer 1" xmlns="http://www.w3.org/2000/svg" viewBox="0 0 994.46 198.58"><defs><style>.cls-1{fill:#fff;}.cls-2{fill:#316ca5;}.cls-3{fill:#f0edf1;}.cls-4{fill:#d74a65;}.cls-5{fill:#cd536f;}.cls-6{fill:#1464aa;}.cls-7{fill:#1464ab;}.cls-8{fill:#e93453;}.cls-9{fill:#e93452;}</style></defs><path class="cls-1" d="M571,549.16V488.68h24.36V589.11c-7.7,0-15.3.16-22.88-.16-1.32-.05-2.85-2-3.77-3.35q-17.61-26.36-35-52.82c-1-1.46-2-2.88-3.77-5.48v61.6h-24.5V488.43c7.68,0,15.3-.17,22.9.16,1.32.05,2.84,2,3.77,3.39q17,25.54,33.86,51.2c1.37,2.08,2.75,4.14,4.13,6.21Z" transform="translate(-249.88 -468.08)"/><path class="cls-1" d="M613.61,588.1c0-32.65,0-65.75,0-98.85.25-.22.5-.63.74-.63,16.78.36,33.78-.81,50.29,1.5,25.25,3.53,40.15,24,39.52,50.74-.6,25-16.88,44.4-41.69,46.93C646.53,589.42,630.28,588.1,613.61,588.1Zm24.6-20.36c14.06.33,28.5,2,36.75-12.32,6.6-11.43,6.51-23.89-1-35-8.69-12.9-22.51-11.13-35.79-11Z" transform="translate(-249.88 -468.08)"/><path class="cls-1" d="M817.46,538.37c.06,29.27-22,51.5-51.35,51.71S714,567.93,713.94,538.63,736.36,487,765.87,487C795.22,487,817.39,509.07,817.46,538.37Zm-25.07.56c.24-17.14-9.08-28.44-24.47-29.65s-26.51,8.29-28.62,24.28c-1.82,13.76,3.54,26.53,13.76,31.28C771,573.17,792.27,564.16,792.39,538.93Z" transform="translate(-249.88 -468.08)"/><path class="cls-1" d="M1127.13,517.48c-10,22.42-20.14,44.82-30,67.3-1.38,3.14-2.88,4.6-6.54,4.48-3.38-.12-5.21-.88-6.68-4.25-9.39-21.49-19.07-42.84-28.66-64.23a7.26,7.26,0,0,0-2.37-3.29v71.29h-13v-98.6a14,14,0,0,1,1.66-.27c12-.4,12-.41,16.89,10.53q14.84,33,29.63,66c.68,1.51,1.4,3,2.51,5.33l36.72-81.65H1141v98.74h-12.68V517.62Z" transform="translate(-249.88 -468.08)"/><path class="cls-1" d="M960.08,547.46l25,41.64c-5.33,0-9.76.23-14.15-.14-1.19-.1-2.54-1.83-3.3-3.11-6.7-11.3-13.38-22.62-19.83-34.07-1.6-2.85-3.39-4-6.65-3.72-3.6.31-7.25.07-11.21.07v40.61H917V489.06c4.24,0,8.66-.15,13.08,0,10.45.43,21.07,0,31.29,1.79,13.84,2.43,22,13.27,22.42,26.78.37,13.66-7.12,24.11-20.43,28.53C962.44,546.51,961.52,546.9,960.08,547.46Zm-30-48v37.61c8.75,0,17.27.69,25.62-.19,9.06-1,14.24-8,14.49-17.5.26-10-4-16.85-13.19-18.33C948.25,499.61,939.21,499.91,930.08,499.44Z" transform="translate(-249.88 -468.08)"/><path class="cls-1" d="M1244.35,589.11a116.17,116.17,0,0,1-11.75-.15c-1.11-.11-2.46-1.85-3-3.13-2.42-6.17-4.6-12.45-6.9-18.78h-43.79q-4,11-8,21.86h-13.71c3.7-10.18,7.25-20,10.83-29.78,7.92-21.7,15.92-43.37,23.7-65.12,1.11-3.11,2.33-4.41,5.87-4.34,10.8.23,10.79.05,14.55,10.37q15.28,41.93,30.57,83.85C1243.27,585.43,1243.69,587,1244.35,589.11Zm-43.56-83.27-18,50h35.94C1212.8,539.21,1207,523.05,1200.79,505.84Z" transform="translate(-249.88 -468.08)"/><path class="cls-1" d="M846.41,547.39v41.49h-13v-99.4a24.21,24.21,0,0,1,3.26-.41c12.49.2,25.07-.43,37.44.88,17.28,1.82,26.77,13.55,26.1,30.09-.61,15.18-11.36,25.62-28.08,26.87-6.64.5-13.32.35-20,.48C850.4,547.42,848.62,547.39,846.41,547.39Zm.18-10.44c9.33-.41,18.49-.16,27.46-1.4,8.43-1.17,12.88-7.93,12.92-17,0-9.5-4.23-16.2-12.93-17.49-8.94-1.33-18.11-1.11-27.45-1.58Z" transform="translate(-249.88 -468.08)"/><path class="cls-1" d="M463.05,588.89V488.67h23.88V588.89Z" transform="translate(-249.88 -468.08)"/><path class="cls-2" d="M445.8,568.54c-.26,21.68-2.77,42.68-9.86,63.11-4.33,12.47-12.05,20.34-24.64,24.43-40.62,13.22-81.25,14.16-122.35,2.15-16.18-4.73-25.95-14.45-30.76-30.66-7.46-25.14-9.56-50.63-7.63-76.59,1.39-18.85,4.89-37.23,12.31-54.8A27.54,27.54,0,0,1,277.71,481c20.59-9.35,42.37-12.51,64.67-12.9,24-.41,47.41,2.71,70.19,10.8C424,483,431,490.08,435,501.54,442.56,523.39,445.48,545.84,445.8,568.54Zm-3.15.54A238,238,0,0,0,434,508c-4.27-15.11-13.17-23.81-28.22-28.21a213.12,213.12,0,0,0-83-7.25c-15.31,1.61-30.14,5.09-44.22,11.62a24.21,24.21,0,0,0-12.66,13.27c-8.58,20.08-11.84,41.22-12.63,62.8-.89,24.64,1.56,48.82,10.21,72.23,3.9,10.53,10.7,17,21.08,20.82,18.52,6.89,37.63,9.75,57.25,10,24,.35,47.45-2.44,70.18-10.8,10.14-3.74,16.52-10,20.32-20.14C439.88,611.86,442.2,590.65,442.65,569.08Z" transform="translate(-249.88 -468.08)"/><path class="cls-1" d="M1004.32,588.89V489.32h12.6v99.57Z" transform="translate(-249.88 -468.08)"/><path class="cls-1" d="M1204.9,643.94h-5.11V604.15c4.31-1.55,7-.83,8.81,4.22,3.22,9.22,7.18,18.18,11.21,28.22,4-9.81,7.6-18.83,11.22-27.87,2.28-5.66,2.26-5.67,8.88-4.64v39.79l-4.85.28V614l-.77-.27c-3.13,7.7-6.13,15.46-9.48,23.06-1.16,2.63-3,6.64-4.9,6.93-4.38.63-3.85-4.44-5.08-7.14-3.33-7.33-6.21-14.86-9.93-22.14Z" transform="translate(-249.88 -468.08)"/><path class="cls-1" d="M497.47,615.24v28.67h-4.63V604c4.35-1.37,7-.35,8.75,4.52,3.24,9.16,7.15,18.09,11.15,28,3.93-9.72,7.84-18.5,11-27.55,1.63-4.66,3.89-6.56,9-5v39.83h-4.77V613.94l-.66-.24q-5.06,12.27-10.1,24.55a17.57,17.57,0,0,1-1.51,3.67c-.66.93-1.92,2.14-2.78,2a4.52,4.52,0,0,1-3.09-2.25c-3.23-7.47-6.23-15.05-9.32-22.58-.6-1.45-1.28-2.87-1.93-4.3Z" transform="translate(-249.88 -468.08)"/><path class="cls-1" d="M981,614.71v29.18l-5.26.29V604.12c3.55-1.6,5.63-.18,7.6,3,5.51,8.78,11.32,17.37,17.82,27.28V603.83l5.43-.36v40.19c-3.41,1.34-5.61.27-7.61-2.94-5.52-8.87-11.37-17.52-17.09-26.26Z" transform="translate(-249.88 -468.08)"/><path class="cls-1" d="M719.81,626.92l9.11,16.53c-4,1.79-6.26.36-7.76-3.26a64,64,0,0,0-3-5.73c-3.87-7.2-3.87-7.2-13-6.26v15.66l-5.27.28V603.59c4.58,0,9-.11,13.47,0,7.61.22,12,2.94,13.51,8.07C728.61,617.83,726.67,622.16,719.81,626.92Zm-14.59-3.39c5.53-1.17,12,2.15,15.53-4.12,1.19-2.08,1-6.35-.37-8.23-3.89-5.21-9.86-2.73-15.16-3.12Z" transform="translate(-249.88 -468.08)"/><path class="cls-1" d="M774.37,644.13V603.61c9.66.2,20.09-2.49,26.24,7.73a23.3,23.3,0,0,1,0,25.12C794.36,646.61,784,643.8,774.37,644.13Zm5.47-4.53c6.76.5,13.28.71,16.45-6,3.25-6.86,3.51-14.35-.78-21-3.72-5.74-9.8-5-15.67-4.3Z" transform="translate(-249.88 -468.08)"/><path class="cls-1" d="M579.93,603.6c4.89,0,9.53-.13,14.15,0,7.6.26,11.67,3,13.12,8.46,1.65,6.2-.19,10.16-7.12,14.75l9.28,16.8c-4.08,1.32-6.48.25-7.84-3.43a46.78,46.78,0,0,0-3-5.72c-3.91-7.26-3.9-7.27-13-6.29v15.69l-5.51.25V603.6Zm5.46,19.86c5.78-.93,12.26,2.17,15.76-4.15,1.16-2.09.91-6.38-.54-8.24-4-5.1-9.86-2.66-15.22-3Z" transform="translate(-249.88 -468.08)"/><path class="cls-1" d="M767.25,624.38c-1.51,4.65-2.19,9.81-4.68,13.85-6.13,9.9-21.45,8.47-26.68-2.18-3.24-6.58-3.06-13.61-1.43-20.5,2-8.49,8.47-13.07,16.76-12.53,7.69.51,13.3,6,14.64,14.55.34,2.13.31,4.31.45,6.46ZM738.36,624c.76,3.28,1.22,6.92,2.5,10.25,1.58,4.11,5,5.94,9.49,5.82s8.37-2.33,8.92-6.49a74.22,74.22,0,0,0,0-19.47c-.57-4.16-4.46-6.32-9-6.44-4.7-.12-8.13,2-9.74,6.26C739.41,617,739.12,620.35,738.36,624Z" transform="translate(-249.88 -468.08)"/><path class="cls-1" d="M967.57,624.21a71,71,0,0,1-1.29,8.45c-2.08,7.73-7.61,12.06-15,12.15S937.57,640.66,936,633a47.59,47.59,0,0,1-.36-17.2C937,607.54,943.29,603,951.06,603s13.51,4.65,15.49,12.88A75.62,75.62,0,0,1,967.57,624.21Zm-5.13-.35c-.61-3.22-.85-6.58-1.92-9.66-1.41-4.09-4.57-6.37-9.08-6.5s-7.85,1.64-9.57,5.74a26.22,26.22,0,0,0,0,20.79c1.78,4.27,5.34,6.12,10,5.86a9.27,9.27,0,0,0,8.82-6.85C961.63,630.29,961.86,627.11,962.44,623.86Z" transform="translate(-249.88 -468.08)"/><path class="cls-1" d="M485.07,615.06H480.7c-2.71-6.63-6.38-9-12.39-7.09-2.12.68-4.8,3.06-5.08,5s1.66,4.94,3.51,6.14c2.85,1.84,6.47,2.46,9.71,3.73,6.69,2.62,9.69,6.68,9.08,12.12s-5,9-12.12,9.79c-9,1-16.14-3.85-17.28-12.2l4.56-.26c3.09,7.09,7.76,9.68,14.31,7.45,2-.68,4.54-3.07,4.7-4.86a8,8,0,0,0-3.31-6.3c-3.32-2-7.41-2.81-11.07-4.38-6.15-2.63-8.86-6.79-8-11.75s5.41-8.73,11.52-9.35C478.17,602.13,484.64,606.84,485.07,615.06Z" transform="translate(-249.88 -468.08)"/><path class="cls-1" d="M1125.85,615.11h-4.72c-3-6.75-7.05-9.2-13-7-2,.73-4.42,3-4.69,4.92s1.49,4.79,3.22,5.87c3,1.88,6.77,2.64,10.17,4,6.86,2.7,9.9,7,9,12.63-.79,5.1-5.27,8.56-12.11,9.27-8.07.84-17.83-4.13-17.1-12.22l4.49-.21c2.59,6.7,6.62,9.24,13.28,7.55,2.26-.58,5.24-3.08,5.58-5.09s-1.79-5.24-3.76-6.48c-3.15-2-7.14-2.62-10.64-4.13-6.23-2.68-8.62-6.48-7.8-11.83.73-4.8,5.15-8.48,11.07-9.22C1117.93,602,1124.16,606.19,1125.85,615.11Z" transform="translate(-249.88 -468.08)"/><path class="cls-1" d="M1056.9,615.1h-4.41c-2.51-6.73-7.35-9.45-13.36-6.91-1.8.77-3.84,3.06-4.07,4.87s1.22,4.5,2.79,5.66c2.18,1.61,5.19,2.06,7.77,3.18,2.73,1.19,5.61,2.22,8,3.93a10.13,10.13,0,0,1,2.83,12.56c-2.38,4.76-9.3,7.37-16.19,6.11-7.68-1.4-11.46-5-12.08-11.75,2.83-1,4.58-.78,5.93,2.68,2,5.12,12,6.6,16.06,2.8a5.8,5.8,0,0,0-1.42-9.58c-3.23-1.64-6.84-2.52-10.24-3.85-7.22-2.82-10.42-7.41-9.12-12.94,1.43-6.06,8.09-9.69,16-8.73C1052.46,604,1056.8,608.42,1056.9,615.1Z" transform="translate(-249.88 -468.08)"/><path class="cls-1" d="M835.06,603.81h5.38c0,9.86.39,19.48-.13,29.05-.41,7.59-6.81,12.2-15.11,12s-13.94-5.16-14.12-13c-.21-9.14-.05-18.29-.05-27.95l5.34-.4c0,9.13-.08,17.9,0,26.66.07,6.29,2.47,9.35,7.48,10,7.22.93,11.11-2.37,11.17-9.69C835.12,621.64,835.06,612.86,835.06,603.81Z" transform="translate(-249.88 -468.08)"/><path class="cls-1" d="M668.94,628v15.83l-5.13.38V604c6.42,0,12.88-.52,19.23.14s10.06,6.14,9.79,12.46-4.08,10.61-10.52,11.27C678.07,628.33,673.75,628,668.94,628Zm.21-4.17c4.08,0,7.59.26,11-.06,4.31-.41,7-2.73,7.15-7.42.09-4.5-2.43-7.76-7-8.17-3.72-.34-7.5-.07-11.22-.07Z" transform="translate(-249.88 -468.08)"/><path class="cls-1" d="M538.84,643.61c4.8-12.64,9.53-25.23,14.45-37.75a3.48,3.48,0,0,1,6.43,0c4.93,12.51,9.68,25.1,14.48,37.69-4.17,1.82-6.29,0-6.86-3.7-.83-5.49-4-7.06-9.07-6.22a8.83,8.83,0,0,1-3,0c-5.5-1-8.85.88-9.71,6.7C545,644.23,542.51,645,538.84,643.61Zm17.68-33.34c-2.44,6.71-4.55,12.54-6.7,18.47h13.44Z" transform="translate(-249.88 -468.08)"/><path class="cls-1" d="M878.67,631.88c-1.38,7.93-5.29,11.81-12.92,12.82-7,.93-13.58-2.38-16.17-9a30.89,30.89,0,0,1,.17-23.82c2.88-6.76,9.8-10,17.36-8.67,6.67,1.13,10.57,5.51,11.56,13.21-2.58.36-5.06,1.48-5.91-2.73s-4-6-8-6.18-7.8,1.19-9.52,5.08a27.21,27.21,0,0,0,0,22.71c1.72,3.91,5.28,5.21,9.51,5s6.61-2.24,8.31-6c.74-1.63,2.94-2.59,4.48-3.86C877.88,630.84,878.28,631.36,878.67,631.88Z" transform="translate(-249.88 -468.08)"/><path class="cls-1" d="M1192,608h-19.54v13c4.86,0,9.49.14,14.11,0,2.93-.11,4,.87,3,4.19h-17v14.54h20v4.24h-25.34V603.58c7.61,0,15.2-.12,22.78.14,1,0,2,2,3,3.06Z" transform="translate(-249.88 -468.08)"/><path class="cls-1" d="M1093.21,603.86c-5.78,13.21-17.39,23.88-13.1,40h-6.47c4.22-16-7.36-26.71-13.07-39.82,3.66-1.21,6-.65,7.75,3.25,2.4,5.4,5.41,10.52,8.53,16.48l8.29-15.89C1087.49,603.39,1087.48,603.39,1093.21,603.86Z" transform="translate(-249.88 -468.08)"/><path class="cls-1" d="M1148.05,643.89h-5.68V608.15h-12.24l-1.2-1.14c1-1.16,1.88-3.31,2.87-3.34,9.6-.25,19.22-.15,28.91-.15v4.42h-12.66Z" transform="translate(-249.88 -468.08)"/><path class="cls-1" d="M643.11,607.91H630.37v35.86h-5.44V608.2H612.16c-.07-1.62-.13-3-.19-4.45h30.92C643,605,643,606.28,643.11,607.91Z" transform="translate(-249.88 -468.08)"/><path class="cls-1" d="M896.08,643.83v-35.3c-4.5-.5-8.78-1-13-1.58a21.36,21.36,0,0,1,0-3.07h30.72c1.86,4.27-1,4.19-4,4.11-2.64-.07-5.28,0-8.35,0v35.86Z" transform="translate(-249.88 -468.08)"/><path class="cls-1" d="M921.11,603.68h4.7v40.2l-4.7.22Z" transform="translate(-249.88 -468.08)"/><path class="cls-3" d="M442.65,569.08c-.45,21.57-2.77,42.78-10.41,63.25-3.8,10.15-10.18,16.4-20.32,20.14-22.73,8.36-46.18,11.15-70.18,10.8-19.62-.29-38.73-3.15-57.25-10-10.38-3.86-17.18-10.29-21.08-20.82-8.65-23.41-11.1-47.59-10.21-72.23.79-21.58,4.05-42.72,12.63-62.8a24.21,24.21,0,0,1,12.66-13.27c14.08-6.53,28.91-10,44.22-11.62a213.12,213.12,0,0,1,83,7.25c15.05,4.4,23.95,13.1,28.22,28.21A238,238,0,0,1,442.65,569.08Zm-121.87,89,1,.14,2.32.41c3.28.31,6.57,1,9.84.87,12.15-.33,24.29-.91,36.43-1.39,13.91-.78,27.12-4.51,40.26-9,9.7-3.27,15.21-9.63,18.61-19,8.89-24.6,10.83-50,9.22-75.76-1.17-18.85-4.42-37.28-11.68-54.91a21.78,21.78,0,0,0-12.57-12.52c-15.83-6.7-32.4-10.07-49.4-11.38-25.43-1.95-50.48-.36-75,7.54-12.62,4.06-20.27,11.53-24.23,24.44-8.2,26.72-10.2,53.87-8,81.46,1.41,17.35,4.72,34.31,13,49.87,1.14,2.13,2.7,4.45,4.69,5.61C289.34,652.68,304.69,656.68,320.78,658.09Z" transform="translate(-249.88 -468.08)"/><path class="cls-4" d="M324.08,658.64l-2.32-.41-1-.14c-16.09-1.41-31.44-5.41-45.46-13.61-2-1.16-3.55-3.48-4.69-5.61-8.32-15.56-11.63-32.52-13-49.87-2.24-27.59-.24-54.74,8-81.46,4-12.91,11.61-20.38,24.23-24.44,24.53-7.9,49.58-9.49,75-7.54,17,1.31,33.57,4.68,49.4,11.38a21.78,21.78,0,0,1,12.57,12.52c7.26,17.63,10.51,36.06,11.68,54.91,1.61,25.8-.33,51.16-9.22,75.76-3.4,9.41-8.91,15.77-18.61,19-13.14,4.44-26.35,8.17-40.26,9h-8.22l0-.66L366,656c15-2,29.91-4.54,44.2-10,7.5-2.88,12.37-7.44,15.32-15,6.23-16.05,9.08-32.7,10-49.72,1.31-25-1.26-49.47-8.77-73.49-3.45-11-10-17.42-21-20.93-24.51-7.83-49.5-10.11-75-8.35-16.85,1.16-33.32,4.18-48.82,11.42a18.82,18.82,0,0,0-10,10.38c-6.89,16.32-10.19,33.41-11.41,50.94-1.8,25.77-.2,51.14,8.07,76,3.6,10.8,10.06,17.38,20.73,20.81C302,652,314.74,655.11,328,656.19l1.26,1.45Z" transform="translate(-249.88 -468.08)"/><path class="cls-5" d="M366,656l-3.84,1.42,0,.66h8.22c-12.14.48-24.28,1.06-36.43,1.39-3.27.09-6.56-.56-9.84-.87l5.16-1c-.46-.54-.86-1-1.26-1.45Z" transform="translate(-249.88 -468.08)"/><path class="cls-5" d="M320.78,658.09l1,.14Z" transform="translate(-249.88 -468.08)"/><path class="cls-6" d="M281.24,524.55c4.58-5,8.86-9.63,13-14.34,2.12-2.41,3.69-.94,5.5.36,35.44,25.4,58.6,59,67.89,101.81,2,9.08,2.73,18.43,4.33,27.6.78,4.44-.92,6.39-5.12,7-5.54.79-11,1.77-17.14,2.76C348.45,595.9,325.29,554.8,281.24,524.55Z" transform="translate(-249.88 -468.08)"/><path class="cls-7" d="M278.88,527.71c44.13,29.2,65.46,69.66,68,122.09-7.09-1.22-13.72-2.21-20.25-3.63-1.08-.23-2.44-2.24-2.54-3.52-3-39.54-20.92-70.52-54.38-93.8Z" transform="translate(-249.88 -468.08)"/><path class="cls-8" d="M416.76,527.47c2.81,6.82,5.58,13,7.8,19.38.38,1.1-1.24,3.51-2.56,4.48-17.65,13-31.52,29.1-39.59,49.69-2.84,7.25-4.88,14.81-7.37,22.48a16.12,16.12,0,0,1-.94-2.21c-2.72-10.28-5.51-20.54-8-30.86a10.74,10.74,0,0,1,.28-6.53C377.12,560.37,394.17,542.35,416.76,527.47Z" transform="translate(-249.88 -468.08)"/><path class="cls-9" d="M414.52,523.76a163.31,163.31,0,0,0-51.59,57.33c-4.12-7.46-8-14.35-11.68-21.37a4.46,4.46,0,0,1,.48-3.85c13.08-18.49,28.87-34.33,47.73-48.5Z" transform="translate(-249.88 -468.08)"/><path class="cls-9" d="M395.91,503.35l-48.82,49.76c-3.58-4.46-7.83-9.55-11.78-14.86a4.52,4.52,0,0,1,0-4.2,222.84,222.84,0,0,1,37.59-39.79,6.08,6.08,0,0,1,5.35-.57C384.44,496.76,390.41,500.29,395.91,503.35Z" transform="translate(-249.88 -468.08)"/></svg>